<?xml version="1.0" encoding="utf-8"?>
<!-- Generator: Adobe Illustrator 16.0.0, SVG Export Plug-In . SVG Version: 6.00 Build 0)  -->
<!DOCTYPE svg PUBLIC "-//W3C//DTD SVG 1.1//EN" "http://www.w3.org/Graphics/SVG/1.1/DTD/svg11.dtd">
<svg version="1.1" id="Layer_1" xmlns="http://www.w3.org/2000/svg" xmlns:xlink="http://www.w3.org/1999/xlink" x="0px" y="0px"
	 width="255.118px" height="255.118px" viewBox="0 0 255.118 255.118" enable-background="new 0 0 255.118 255.118"
	 xml:space="preserve">
<g>
	<path fill="#FFFFFF" d="M64.538,227.5l17.961-36.376h0.455l17.96,36.376h-8.139l-3.592-7.275H76.224l-3.592,7.275H64.538z
		 M79.815,212.949h5.775l-2.865-5.82L79.815,212.949z"/>
	<path fill="#FFFFFF" d="M104.551,227.5v-36.376h14.55c1.485,0,2.895,0.288,4.229,0.863c1.333,0.576,2.493,1.357,3.479,2.342
		c0.984,0.985,1.766,2.146,2.342,3.479c0.575,1.335,0.863,2.744,0.863,4.229c0,2.091-0.53,3.986-1.591,5.684
		c-1.062,1.698-2.456,3.001-4.184,3.91l6.639,15.869h-7.866l-6.093-14.551h-5.092V227.5H104.551z M111.826,205.674h7.275
		c1,0,1.856-0.355,2.569-1.068c0.712-0.712,1.068-1.568,1.068-2.568c0-1.001-0.356-1.856-1.068-2.569
		c-0.713-0.712-1.569-1.068-2.569-1.068h-7.275V205.674z M123.012,227.5h7.866l0.046,0.046L123.012,227.5z"/>
	<path fill="#FFFFFF" d="M134.561,227.5v-36.376h14.55c1.484,0,2.895,0.288,4.229,0.863c1.334,0.576,2.494,1.357,3.479,2.342
		c0.984,0.985,1.766,2.146,2.342,3.479c0.576,1.335,0.863,2.744,0.863,4.229c0,1.516-0.287,2.933-0.863,4.251
		s-1.357,2.471-2.342,3.456s-2.145,1.766-3.479,2.342s-2.744,0.863-4.229,0.863h-7.275V227.5H134.561z M141.836,205.674h7.275
		c1,0,1.857-0.355,2.568-1.068c0.713-0.712,1.07-1.568,1.07-2.568c0-1.001-0.357-1.856-1.07-2.569
		c-0.711-0.712-1.568-1.068-2.568-1.068h-7.275V205.674z"/>
	<path fill="#FFFFFF" d="M154.205,227.5l17.961-36.376h0.453L190.58,227.5h-8.139l-3.592-7.275H165.89l-3.592,7.275H154.205z
		 M169.482,212.949h5.775l-2.865-5.82L169.482,212.949z"/>
</g>
<rect x="130.366" y="62.053" transform="matrix(-0.7201 -0.6938 0.6938 -0.7201 235.8869 259.557)" fill="#FFFFFF" width="79.853" height="40.302"/>
<ellipse transform="matrix(0.7201 -0.6938 0.6938 0.7201 -27.1408 68.0986)" fill="#FFFFFF" cx="70.844" cy="67.693" rx="39.926" ry="40.301"/>
<rect x="44.899" y="62.053" transform="matrix(0.7201 -0.6938 0.6938 0.7201 -33.2961 81.8621)" fill="#FFFFFF" width="79.853" height="40.302"/>
<ellipse transform="matrix(-0.7201 -0.6938 0.6938 -0.7201 270.0061 244.2975)" fill="#FFFFFF" cx="184.274" cy="67.693" rx="39.925" ry="40.301"/>
<circle fill="#FFFFFF" stroke="#FFFFFF" stroke-miterlimit="10" cx="127.594" cy="88.629" r="6.388"/>
<circle fill="#FFFFFF" stroke="#FFFFFF" stroke-miterlimit="10" cx="107.499" cy="108.724" r="6.388"/>
<circle fill="#FFFFFF" stroke="#FFFFFF" stroke-miterlimit="10" cx="87.542" cy="128.681" r="6.388"/>
<circle fill="#FFFFFF" stroke="#FFFFFF" stroke-miterlimit="10" cx="147.689" cy="108.724" r="6.388"/>
<circle fill="#FFFFFF" stroke="#FFFFFF" stroke-miterlimit="10" cx="127.594" cy="128.819" r="6.388"/>
<circle fill="#FFFFFF" stroke="#FFFFFF" stroke-miterlimit="10" cx="107.638" cy="148.776" r="6.388"/>
<circle fill="#FFFFFF" stroke="#FFFFFF" stroke-miterlimit="10" cx="167.576" cy="128.75" r="6.388"/>
<circle fill="#FFFFFF" stroke="#FFFFFF" stroke-miterlimit="10" cx="147.481" cy="148.845" r="6.388"/>
<circle fill="#FFFFFF" stroke="#FFFFFF" stroke-miterlimit="10" cx="127.525" cy="168.801" r="6.388"/>
</svg>
