<?xml version="1.0" encoding="utf-8"?>
<!-- Generator: Adobe Illustrator 16.0.0, SVG Export Plug-In . SVG Version: 6.00 Build 0)  -->
<!DOCTYPE svg PUBLIC "-//W3C//DTD SVG 1.1//EN" "http://www.w3.org/Graphics/SVG/1.1/DTD/svg11.dtd">
<svg version="1.1" id="Layer_1" xmlns="http://www.w3.org/2000/svg" xmlns:xlink="http://www.w3.org/1999/xlink" x="0px" y="0px"
	 width="212.599px" height="212.599px" viewBox="0 0 212.599 212.599" enable-background="new 0 0 212.599 212.599"
	 xml:space="preserve">
<g>
	<g>
		<path fill="#FFFFFF" d="M4.09,164.46h3.65v14.602c0.973-1.564,2.503-2.875,4.589-3.938c2.086-1.059,4.12-1.592,6.102-1.592
			s3.841,0.375,5.579,1.123s3.26,1.773,4.564,3.076c1.304,1.305,2.328,2.824,3.076,4.562c0.747,1.74,1.121,3.6,1.121,5.58
			c0,1.982-0.374,3.842-1.121,5.58c-0.748,1.74-1.772,3.26-3.076,4.564c-1.305,1.303-2.826,2.33-4.564,3.076
			c-1.738,0.748-3.598,1.121-5.579,1.121s-3.842-0.373-5.58-1.121c-1.739-0.746-3.26-1.773-4.562-3.076
			c-1.304-1.305-2.33-2.824-3.077-4.564c-0.748-1.738-1.121-3.598-1.121-5.58V164.46z M7.74,187.874
			c0,1.461,0.277,2.842,0.834,4.146s1.321,2.443,2.295,3.416c0.973,0.973,2.112,1.738,3.416,2.295s2.686,0.834,4.146,0.834
			s2.842-0.277,4.146-0.834s2.442-1.322,3.416-2.295c0.973-0.973,1.738-2.111,2.295-3.416c0.556-1.305,0.834-2.686,0.834-4.146
			c0-1.459-0.278-2.842-0.834-4.145c-0.557-1.305-1.322-2.443-2.295-3.416c-0.974-0.973-2.112-1.738-3.416-2.295
			s-2.686-0.834-4.146-0.834s-2.842,0.277-4.146,0.834s-2.443,1.322-3.416,2.295c-0.974,0.973-1.738,2.111-2.295,3.416
			C8.018,185.032,7.74,186.415,7.74,187.874z"/>
		<path fill="#FFFFFF" d="M39.133,187.874c0,1.461,0.278,2.842,0.835,4.146c0.556,1.305,1.32,2.443,2.294,3.416
			s2.112,1.738,3.416,2.295s2.686,0.834,4.146,0.834s2.842-0.277,4.146-0.834c1.305-0.557,2.443-1.322,3.416-2.295
			c0.695-0.695,1.286-1.494,1.773-2.398h4.016l-0.156,0.416c-0.73,1.74-1.747,3.26-3.052,4.564c-1.303,1.303-2.824,2.33-4.562,3.076
			c-1.738,0.748-3.598,1.121-5.58,1.121c-1.981,0-3.842-0.373-5.579-1.121c-1.739-0.746-3.26-1.773-4.563-3.076
			c-1.304-1.305-2.329-2.824-3.077-4.564c-0.748-1.738-1.121-3.598-1.121-5.58c0-1.98,0.373-3.84,1.121-5.58
			c0.748-1.738,1.773-3.258,3.077-4.562c1.304-1.303,2.824-2.328,4.563-3.076c1.737-0.748,3.598-1.123,5.579-1.123
			c1.982,0,3.842,0.375,5.58,1.123s3.26,1.773,4.562,3.076c1.305,1.305,2.321,2.824,3.052,4.562c0.625,1.428,0.99,2.922,1.095,4.486
			H39.186C39.15,187.163,39.133,187.528,39.133,187.874z M57.385,180.313c-0.973-0.973-2.111-1.738-3.416-2.295
			c-1.304-0.557-2.686-0.834-4.146-0.834s-2.842,0.277-4.146,0.834s-2.442,1.322-3.416,2.295c-0.834,0.834-1.513,1.773-2.033,2.816
			h19.139C58.845,182.087,58.185,181.147,57.385,180.313z"/>
		<path fill="#FFFFFF" d="M66.667,187.874c0-1.98,0.373-3.84,1.121-5.58c0.747-1.738,1.773-3.258,3.077-4.562
			c1.304-1.303,2.824-2.328,4.562-3.076s3.6-1.123,5.58-1.123c1.981,0,3.841,0.375,5.58,1.123c1.737,0.748,3.259,1.773,4.562,3.076
			c1.304,1.305,2.33,2.824,3.077,4.562c0.747,1.74,1.121,3.6,1.121,5.58v13.09h-3.65v-3.494c-0.174,0.176-0.365,0.365-0.574,0.574
			c-1.286,1.287-2.799,2.305-4.536,3.051c-1.739,0.748-3.599,1.121-5.58,1.121c-1.98,0-3.842-0.373-5.58-1.121
			c-1.738-0.746-3.259-1.773-4.562-3.076c-1.304-1.305-2.33-2.824-3.077-4.564C67.04,191.716,66.667,189.856,66.667,187.874z
			 M70.317,187.874c0,1.461,0.277,2.842,0.835,4.146c0.556,1.305,1.32,2.443,2.294,3.416c0.973,0.973,2.112,1.738,3.416,2.295
			s2.686,0.834,4.146,0.834c1.461,0,2.842-0.277,4.146-0.834s2.442-1.322,3.416-2.295c0.973-0.973,1.739-2.104,2.295-3.391
			c0.486-1.182,0.765-2.416,0.834-3.701v-0.471c0-1.459-0.279-2.842-0.834-4.145c-0.556-1.305-1.322-2.443-2.295-3.416
			c-0.974-0.973-2.112-1.738-3.416-2.295s-2.685-0.834-4.146-0.834c-1.46,0-2.842,0.277-4.146,0.834s-2.443,1.322-3.416,2.295
			c-0.974,0.973-1.738,2.111-2.294,3.416C70.595,185.032,70.317,186.415,70.317,187.874z"/>
		<path fill="#FFFFFF" d="M99.155,174.89h3.755v2.346c0.834-1.111,1.972-2.006,3.415-2.686c1.442-0.676,2.946-1.018,4.511-1.018
			c2.052,0,3.903,0.498,5.555,1.488c1.65,0.99,3.015,2.305,4.093,3.936c1.044-1.631,2.46-2.945,4.249-3.936
			c1.791-0.99,3.729-1.488,5.816-1.488c1.599,0,3.109,0.314,4.536,0.939c1.426,0.627,2.668,1.469,3.729,2.529
			s1.896,2.312,2.503,3.756c0.608,1.441,0.912,2.965,0.912,4.562l0.053,15.645h-3.755l-0.051-15.645
			c0-1.111-0.209-2.154-0.626-3.129c-0.418-0.973-0.983-1.826-1.695-2.555c-0.714-0.73-1.547-1.305-2.504-1.723
			c-0.955-0.416-1.989-0.625-3.102-0.625c-1.113,0-2.148,0.209-3.103,0.625c-0.958,0.418-1.8,0.992-2.53,1.723
			c-0.729,0.729-1.305,1.582-1.721,2.555c-0.417,0.975-0.625,2.018-0.625,3.129l0.051,15.645h-3.754l-0.052-15.645
			c-0.07-1.148-0.322-2.217-0.757-3.207c-0.435-0.992-1.009-1.844-1.721-2.557c-0.713-0.711-1.538-1.268-2.478-1.666
			c-0.938-0.4-1.947-0.602-3.024-0.602c-1.078,0-2.095,0.227-3.05,0.68c-0.957,0.449-1.8,1.051-2.53,1.797
			c-0.73,0.748-1.304,1.6-1.721,2.557c-0.417,0.955-0.625,1.955-0.625,2.998l0.051,15.645h-3.755L99.155,174.89z"/>
		<path fill="#FFFFFF" d="M145.567,166.649c0-0.625,0.207-1.146,0.624-1.562c0.419-0.418,0.939-0.627,1.565-0.627
			s1.147,0.209,1.564,0.627c0.417,0.416,0.625,0.938,0.625,1.562c0,0.627-0.208,1.146-0.625,1.564s-0.938,0.625-1.564,0.625
			s-1.146-0.207-1.565-0.625C145.774,167.796,145.567,167.276,145.567,166.649z M145.88,174.89h3.649v26.074h-3.649V174.89z"/>
		<path fill="#FFFFFF" d="M152.605,187.874c0-1.98,0.374-3.84,1.121-5.58c0.748-1.738,1.773-3.258,3.078-4.562
			c1.303-1.303,2.823-2.328,4.562-3.076c1.739-0.748,3.599-1.123,5.58-1.123s3.841,0.375,5.58,1.123
			c1.738,0.748,3.26,1.773,4.563,3.076c1.303,1.305,2.328,2.824,3.077,4.562c0.746,1.74,1.12,3.6,1.12,5.58v13.09h-3.649v-3.494
			c-0.175,0.176-0.366,0.365-0.573,0.574c-1.288,1.287-2.8,2.305-4.538,3.051c-1.739,0.748-3.599,1.121-5.58,1.121
			s-3.841-0.373-5.58-1.121c-1.738-0.746-3.259-1.773-4.562-3.076c-1.305-1.305-2.33-2.824-3.078-4.564
			C152.979,191.716,152.605,189.856,152.605,187.874z M156.257,187.874c0,1.461,0.277,2.842,0.834,4.146
			c0.556,1.305,1.319,2.443,2.294,3.416c0.974,0.973,2.111,1.738,3.416,2.295c1.304,0.557,2.686,0.834,4.146,0.834
			c1.461,0,2.842-0.277,4.146-0.834c1.305-0.557,2.442-1.322,3.417-2.295c0.973-0.973,1.737-2.104,2.295-3.391
			c0.486-1.182,0.763-2.416,0.834-3.701v-0.471c0-1.459-0.279-2.842-0.834-4.145c-0.558-1.305-1.322-2.443-2.295-3.416
			c-0.975-0.973-2.112-1.738-3.417-2.295c-1.304-0.557-2.685-0.834-4.146-0.834c-1.46,0-2.842,0.277-4.146,0.834
			c-1.305,0.557-2.442,1.322-3.416,2.295c-0.975,0.973-1.738,2.111-2.294,3.416C156.534,185.032,156.257,186.415,156.257,187.874z"
			/>
		<path fill="#FFFFFF" d="M204.701,185.319c0-1.111-0.208-2.154-0.626-3.129c-0.417-0.973-0.99-1.826-1.72-2.555
			c-0.731-0.73-1.583-1.305-2.555-1.723c-0.975-0.416-2.002-0.625-3.078-0.625c-1.078,0-2.104,0.227-3.076,0.68
			c-0.974,0.449-1.826,1.051-2.557,1.797c-0.73,0.748-1.312,1.609-1.746,2.582c-0.436,0.973-0.652,1.965-0.652,2.973l0.053,15.645
			h-3.702V174.89h3.649v2.398c0.349-0.555,0.816-1.068,1.408-1.537c0.592-0.471,1.243-0.869,1.956-1.201
			c0.713-0.33,1.468-0.58,2.269-0.754c0.8-0.176,1.6-0.264,2.398-0.264c1.6,0,3.11,0.314,4.536,0.939
			c1.427,0.627,2.669,1.469,3.729,2.529c1.062,1.061,1.903,2.312,2.53,3.756c0.625,1.441,0.938,2.965,0.938,4.562l0.053,15.645
			h-3.755L204.701,185.319z"/>
	</g>
	<g>
		<g>
			<path fill="#FFFFFF" d="M127.781,105.377h6.325c-0.001-10.79-6.179-20.157-15.178-24.772l-3.166,5.482
				C122.875,89.599,127.779,96.924,127.781,105.377z"/>
			<path fill="#FFFFFF" d="M135.69,105.219c0,1.271-0.09,2.52-0.246,3.749l6.287,1.399c0.241-1.674,0.372-3.385,0.372-5.126
				c0-10.978-4.969-20.813-12.77-27.39c-4.275-3.614-9.403-6.248-15.037-7.55l-1.115,6.324c4.558,1.103,8.707,3.264,12.167,6.214
				C131.671,88.245,135.69,96.269,135.69,105.219z"/>
			<path fill="#FFFFFF" d="M143.552,105.049h-0.043c0,3.206-0.407,6.318-1.174,9.289l6.103,2.041c0.971-3.614,1.5-7.407,1.5-11.324
				c0-24.061-19.576-43.636-43.638-43.636h-0.002v6.385h0.002C126.839,67.803,143.548,84.512,143.552,105.049z"/>
		</g>
		<g>
			<path fill="#FFFFFF" d="M126.803,111.792c-2.735,8.732-10.901,15.088-20.525,15.088c-11.855,0-21.502-9.646-21.502-21.5
				c0-0.657,0-53.893,0-53.893H78.45v53.891v0.002c0,15.344,12.482,27.825,27.827,27.825c13.138,0,24.169-9.152,27.074-21.412
				H126.803z"/>
			<path fill="#FFFFFF" d="M133.854,115.452c-4.166,11.211-14.972,19.221-27.616,19.221c-2.021,0-3.998-0.203-5.907-0.596
				c-13.392-2.758-23.494-14.638-23.494-28.837v-1.702V84.766V37.649h-6.385v65.754c-0.03,0.603-0.052,1.207-0.052,1.816
				c0,17.3,12.32,31.776,28.646,35.114c2.337,0.48,4.755,0.732,7.232,0.732c15.69,0,29.047-10.141,33.883-24.21L133.854,115.452z"/>
			<path fill="#FFFFFF" d="M140.087,120.623l0.012-0.036c-5.899,12.789-18.836,21.693-33.823,21.693
				c-20.527,0-37.229-16.703-37.229-37.231v-0.048c0.002-0.377,0.018-0.751,0.029-1.125h-0.029V82.352V10.383h-6.385v94.593
				c0,0.026-0.001,0.053-0.001,0.079c0,24.063,19.576,43.64,43.639,43.64c17.795,0,33.125-10.713,39.908-26.022L140.087,120.623z"/>
		</g>
	</g>
</g>
</svg>
