<?xml version="1.0" encoding="utf-8"?>
<!-- Generator: Adobe Illustrator 16.0.0, SVG Export Plug-In . SVG Version: 6.00 Build 0)  -->
<!DOCTYPE svg PUBLIC "-//W3C//DTD SVG 1.1//EN" "http://www.w3.org/Graphics/SVG/1.1/DTD/svg11.dtd">
<svg version="1.1" id="Layer_1" xmlns="http://www.w3.org/2000/svg" xmlns:xlink="http://www.w3.org/1999/xlink" x="0px" y="0px"
	 width="212.599px" height="141.732px" viewBox="0 0 212.599 141.732" enable-background="new 0 0 212.599 141.732"
	 xml:space="preserve">
<g>
	<g>
		<g>
			<path fill="#EC8608" d="M28.175,118.395c0,3.326-1.183,6.171-3.546,8.534c-2.364,2.364-5.209,3.546-8.534,3.546H4.016v-30.289
				c0-3.325,1.181-6.17,3.546-8.534c2.363-2.363,5.207-3.546,8.533-3.546c3.325,0,6.17,1.183,8.534,3.546
				c2.363,2.364,3.546,5.209,3.546,8.534c0,1.764-0.291,3.346-0.872,4.748s-1.472,2.664-2.674,3.786
				c1.041,1.042,1.893,2.313,2.554,3.815c0.661,1.503,0.992,3.075,0.992,4.718V118.395z M21.083,100.186
				c0-1.322-0.48-2.483-1.442-3.485c-0.962-1.001-2.144-1.503-3.546-1.503c-1.322,0-2.484,0.491-3.485,1.473
				c-1.002,0.982-1.503,2.154-1.503,3.516v4.988h4.988c1.322,0,2.484-0.481,3.486-1.442
				C20.582,102.77,21.083,101.588,21.083,100.186z M21.083,118.395v-1.142c0-1.401-0.461-2.584-1.382-3.546
				c-0.923-0.961-2.124-1.442-3.606-1.442h-4.988v11.118h4.988c1.402,0,2.584-0.48,3.546-1.442
				C20.603,120.979,21.083,119.798,21.083,118.395z"/>
			<path fill="#EC8608" d="M56.239,130.475h-9.676c-3.326,0-6.17-1.182-8.533-3.546c-2.365-2.363-3.546-5.208-3.546-8.534v-0.901
				c0-3.365,1.181-6.209,3.546-8.533c-2.365-2.284-3.546-5.128-3.546-8.534v-0.24c0-3.325,1.181-6.17,3.546-8.534
				c2.363-2.363,5.207-3.546,8.533-3.546h9.676v7.092h-9.676c-1.442,0-2.644,0.502-3.605,1.503c-0.441,0.48-0.781,1.002-1.021,1.562
				c-0.24,0.562-0.361,1.201-0.361,1.923v0.24c0,1.322,0.461,2.505,1.383,3.546c0.962,0.962,2.163,1.442,3.605,1.442h9.676v7.092
				h-9.676c-1.482,0-2.685,0.461-3.605,1.382c-0.922,0.842-1.383,2.043-1.383,3.605v0.901c0,1.283,0.481,2.465,1.442,3.546
				c0.962,0.962,2.144,1.442,3.546,1.442h9.676V130.475z"/>
			<path fill="#EC8608" d="M86.709,130.475h-7.092v-10.156h-9.977v10.156H62.55v-30.289c0-3.325,1.181-6.17,3.546-8.534
				c2.363-2.363,5.207-3.546,8.533-3.546c3.325,0,6.17,1.183,8.534,3.546c2.363,2.364,3.546,5.209,3.546,8.534V130.475z
				 M79.617,113.227v-13.041c0-1.322-0.501-2.483-1.502-3.485c-1.002-1.001-2.164-1.503-3.486-1.503s-2.484,0.491-3.485,1.473
				c-1.002,0.982-1.503,2.154-1.503,3.516v13.041H79.617z"/>
			<path fill="#EC8608" d="M118.139,89.488c0.722-0.521,1.392-0.881,2.014-1.082c0.621-0.2,1.292-0.301,2.014-0.301
				c3.324,0,6.169,1.183,8.534,3.546c2.363,2.364,3.545,5.209,3.545,8.534v30.289h-7.092v-30.289c0-1.322-0.502-2.483-1.502-3.485
				c-1.002-1.001-2.164-1.503-3.485-1.503c-1.363,0-2.535,0.521-3.516,1.562c-0.982,1.042-1.473,2.185-1.473,3.426v30.289h-7.092
				v-30.289c0-1.322-0.501-2.483-1.502-3.485c-1.002-1.001-2.164-1.503-3.486-1.503c-1.362,0-2.534,0.511-3.516,1.532
				c-0.982,1.022-1.473,2.174-1.473,3.456v30.289h-7.091v-30.289c0-3.325,1.181-6.17,3.546-8.534
				c2.363-2.363,5.207-3.546,8.533-3.546c2.003,0,3.806,0.421,5.409,1.263c1.602,0.841,2.984,1.983,4.146,3.425
				C115.855,91.352,117.017,90.25,118.139,89.488z"/>
			<path fill="#EC8608" d="M147.646,130.475h-7.092V88.105h7.092V130.475z"/>
			<path fill="#EC8608" d="M178.114,130.475h-7.092v-10.156h-9.976v10.156h-7.092v-30.289c0-3.325,1.182-6.17,3.546-8.534
				c2.363-2.363,5.208-3.546,8.534-3.546c3.324,0,6.169,1.183,8.533,3.546c2.363,2.364,3.546,5.209,3.546,8.534V130.475z
				 M171.022,113.227v-13.041c0-1.322-0.501-2.483-1.502-3.485c-1.002-1.001-2.164-1.503-3.485-1.503
				c-1.322,0-2.485,0.491-3.486,1.473c-1.002,0.982-1.502,2.154-1.502,3.516v13.041H171.022z"/>
			<path fill="#EC8608" d="M208.583,130.475h-7.092v-30.289c0-1.322-0.501-2.483-1.502-3.485c-1.002-1.001-2.164-1.503-3.485-1.503
				c-1.322,0-2.485,0.491-3.486,1.473c-1.002,0.982-1.502,2.154-1.502,3.516v30.289h-7.092v-30.289c0-3.325,1.182-6.17,3.546-8.534
				c2.363-2.363,5.208-3.546,8.534-3.546c3.324,0,6.169,1.183,8.533,3.546c2.363,2.364,3.546,5.209,3.546,8.534V130.475z"/>
		</g>
	</g>
	<g>
		<rect x="99.622" y="36.946" fill="#EB8508" width="1.589" height="6.431"/>
		<rect x="111.159" y="36.948" fill="#EB8508" width="7.848" height="6.43"/>
		<g>
			<path fill="#EB8508" d="M115.149,59.457H94.206v-6.431h20.943c1.486,0,2.629-0.465,3.599-1.464l0.06-0.061
				c0.966-0.943,1.443-2.278,1.461-4.081c0-0.998-0.234-1.921-0.717-2.789c-0.401-0.61-0.955-0.983-1.786-1.207l-2.383-0.639v-4.55
				l1.793-0.885c0.603-0.297,1.096-0.614,1.467-0.943l0.062-0.055c0.278-0.233,0.489-0.465,0.614-0.671
				c0.341-0.655,0.499-1.316,0.483-2.021c-0.001-2.238-0.751-3.249-1.315-3.82c-0.855-0.867-2.33-1.317-4.387-1.337h-2.941v-6.431
				h2.975c3.847,0.038,6.841,1.132,8.931,3.251c2.102,2.129,3.167,4.91,3.167,8.266c0.04,1.756-0.384,3.518-1.263,5.163
				l-0.043,0.079c-0.233,0.41-0.511,0.808-0.829,1.19c0.342,0.382,0.654,0.795,0.933,1.237l0.07,0.118
				c1.062,1.858,1.599,3.902,1.599,6.074c-0.035,3.563-1.167,6.451-3.364,8.616C121.139,58.317,118.386,59.457,115.149,59.457z"/>
		</g>
		<g>
			<path fill="#EB8508" d="M116.833,71.521H90.388V65.09h26.445c3.227,0,5.831-1.069,7.965-3.269l0.06-0.061
				c2.152-2.104,3.218-4.975,3.256-8.773c0-2.202-0.519-4.209-1.585-6.102c-1.02-1.586-2.502-2.622-4.531-3.167l-2.382-0.64v-4.614
				l1.796-0.884c1.237-0.609,2.271-1.279,3.073-1.992l0.066-0.058c0.714-0.601,1.257-1.215,1.614-1.827
				c0.803-1.522,1.175-3.067,1.137-4.722c-0.001-3.558-0.973-6.236-2.972-8.265c-1.944-1.969-5.072-2.988-9.297-3.03h-13.9v-6.43
				h13.933c6.014,0.059,10.66,1.722,13.841,4.943c3.202,3.247,4.825,7.522,4.825,12.708c0.062,2.691-0.582,5.361-1.915,7.863
				l-0.046,0.081c-0.669,1.173-1.59,2.283-2.742,3.307c1.159,0.929,2.153,2.049,2.976,3.354l0.073,0.12
				c1.637,2.868,2.467,6.025,2.467,9.385c-0.057,5.531-1.792,9.998-5.159,13.308C126.029,69.773,121.806,71.521,116.833,71.521z"/>
		</g>
		<rect x="84.18" y="65.09" fill="#EB8508" width="1.589" height="6.431"/>
		<rect x="102.797" y="36.948" fill="#EB8508" width="6.85" height="6.43"/>
		<rect x="101.133" y="22.074" fill="#EB8508" width="8.514" height="6.431"/>
		<rect x="95.006" y="22.074" fill="#EB8508" width="4.614" height="6.431"/>
		<rect x="82.668" y="53.026" fill="#EB8508" width="3.901" height="6.431"/>
		<rect x="91.9" y="22.074" fill="#EB8508" width="1.588" height="6.431"/>
		<rect x="98.107" y="11.258" fill="#EB8508" width="1.588" height="6.43"/>
		<rect x="95.006" y="11.258" fill="#EB8508" width="1.59" height="6.43"/>
		<rect x="88.081" y="53.026" fill="#EB8508" width="4.614" height="6.431"/>
		<rect x="78.055" y="65.09" fill="#EB8508" width="4.613" height="6.431"/>
		<rect x="88.874" y="11.258" fill="#EB8508" width="4.614" height="6.43"/>
		<rect x="85.769" y="11.258" fill="#EB8508" width="1.588" height="6.43"/>
		<rect x="87.288" y="65.09" fill="#EB8508" width="1.588" height="6.431"/>
		<rect x="88.837" y="22.074" fill="#EB8508" width="1.588" height="6.431"/>
	</g>
</g>
</svg>
