<?xml version="1.0" encoding="utf-8"?>
<!-- Generator: Adobe Illustrator 16.0.0, SVG Export Plug-In . SVG Version: 6.00 Build 0)  -->
<!DOCTYPE svg PUBLIC "-//W3C//DTD SVG 1.1//EN" "http://www.w3.org/Graphics/SVG/1.1/DTD/svg11.dtd">
<svg version="1.1" id="Layer_1" xmlns="http://www.w3.org/2000/svg" xmlns:xlink="http://www.w3.org/1999/xlink" x="0px" y="0px"
	 width="212.598px" height="212.598px" viewBox="0 0 212.598 212.598" enable-background="new 0 0 212.598 212.598"
	 xml:space="preserve">
<g>
	<path fill="#F3956B" d="M34.321,210.15v-26.259h3.268v26.259H34.321z"/>
	<path fill="#F3956B" d="M62.311,210.15l-15.314-20.943v20.943h-3.268v-26.259h3.347l15.117,20.512v-20.512h3.268v26.259H62.311z"/>
	<path fill="#F3956B" d="M70.025,206.45l1.928-2.48c1.732,1.929,4.566,3.74,8.268,3.74c4.686,0,6.182-2.52,6.182-4.527
		c0-6.771-15.551-3.031-15.551-12.401c0-4.33,3.857-7.282,9.016-7.282c4.016,0,7.125,1.338,9.33,3.66l-1.969,2.402
		c-1.969-2.166-4.725-3.15-7.598-3.15c-3.15,0-5.395,1.693-5.395,4.174c0,5.904,15.551,2.52,15.551,12.322
		c0,3.818-2.598,7.716-9.684,7.716C75.537,210.623,72.189,208.89,70.025,206.45z"/>
	<path fill="#F3956B" d="M94.666,210.15v-26.259h3.268v26.259H94.666z"/>
	<path fill="#F3956B" d="M103.011,197.041c0-8.149,6.023-13.582,13.504-13.582c4.645,0,7.873,2.048,10.195,4.921l-2.598,1.614
		c-1.654-2.126-4.449-3.622-7.598-3.622c-5.748,0-10.117,4.409-10.117,10.669c0,6.22,4.369,10.708,10.117,10.708
		c3.148,0,5.748-1.535,7.047-2.834v-5.354h-9.016v-2.913h12.283v9.487c-2.441,2.716-6.023,4.527-10.314,4.527
		C109.035,210.662,103.011,205.19,103.011,197.041z"/>
	<path fill="#F3956B" d="M150.761,210.15v-12.046h-15.354v12.046h-3.268v-26.259h3.268v11.299h15.354v-11.299h3.268v26.259H150.761z
		"/>
	<path fill="#F3956B" d="M166.664,210.15v-23.345h-8.307v-2.914h19.92v2.914h-8.346v23.345H166.664z"/>
</g>
<g>
	<path fill="#F3956B" d="M92.008,58.245c-0.744-0.459-1.84-0.721-3.004-0.721c-1.166,0-2.262,0.262-3.006,0.721L58.009,75.506
		c-0.193,0.119-0.365,0.232-0.512,0.334v23.498c0,1.359,1.105,2.467,2.467,2.467h26.763c-0.252-0.777-0.393-1.605-0.393-2.467
		V74.661c0-1.391,0.883-2.477,3.148-3.875l11.432-7.049l0,0L92.008,58.245z"/>
	<path fill="#F3956B" d="M174.565,40.198L110.026,2.936c-2.305-1.332-5.148-1.332-7.453,0L38.035,40.198
		c-2.307,1.328-3.727,3.793-3.727,6.455v74.523c0,2.666,1.42,5.127,3.727,6.457l64.538,37.262c2.305,1.332,5.148,1.332,7.453,0
		l64.539-37.262c2.305-1.33,3.725-3.791,3.725-6.457V46.653C178.29,43.991,176.87,41.526,174.565,40.198z M160.647,99.338
		c0,4.418-3.594,8.012-8.012,8.012h-34.383c4.418,0,8.012-3.594,8.012-8.012V74.727c0-1.572-1.143-2.576-3.252-3.875l-16.818-10.371
		l-4.304,2.653l-0.977,0.602l19.188,11.834c0.234,0.145,0.441,0.279,0.617,0.4v23.367c0,1.359-1.105,2.467-2.467,2.467H86.727
		c1.045,3.214,4.064,5.545,7.619,5.545H59.964c-4.418,0-8.012-3.594-8.012-8.012V74.661c0-1.391,0.883-2.477,3.146-3.873
		L83.09,53.526c1.617-0.998,3.717-1.547,5.914-1.547c2.195,0,4.297,0.549,5.914,1.547l11.276,6.955l11.279-6.955
		c1.617-0.998,3.719-1.547,5.914-1.547c2.197,0,4.297,0.549,5.916,1.547l28.092,17.326c2.109,1.299,3.252,2.303,3.252,3.875V99.338z
		 M89.521,105.718c-0.613-0.466-1.157-1.016-1.614-1.635C88.363,104.703,88.908,105.252,89.521,105.718z"/>
</g>
</svg>
