<?xml version="1.0" encoding="utf-8"?>
<!-- Generator: Adobe Illustrator 16.0.0, SVG Export Plug-In . SVG Version: 6.00 Build 0)  -->
<!DOCTYPE svg PUBLIC "-//W3C//DTD SVG 1.1//EN" "http://www.w3.org/Graphics/SVG/1.1/DTD/svg11.dtd">
<svg version="1.1" id="Layer_1" xmlns="http://www.w3.org/2000/svg" xmlns:xlink="http://www.w3.org/1999/xlink" x="0px" y="0px"
	 width="212.598px" height="212.598px" viewBox="0 0 212.598 212.598" enable-background="new 0 0 212.598 212.598"
	 xml:space="preserve">
<g>
	<g>
		<g>
			<polygon fill="#FFFFFF" points="91.764,25.034 68.254,25.034 68.254,36.754 68.254,60.262 79.974,71.982 79.974,36.754 
				103.484,36.754 			"/>
			<polygon fill="#FFFFFF" points="115.202,25.034 103.484,36.754 126.993,36.754 126.993,71.982 138.709,60.262 138.709,36.754 
				138.709,25.034 			"/>
			<polygon fill="#FFFFFF" points="126.993,71.982 126.993,107.209 103.484,107.209 115.202,118.93 138.709,118.93 138.709,107.209 
				138.709,83.702 			"/>
			<polygon fill="#FFFFFF" points="79.974,107.209 79.974,71.982 68.254,83.702 68.254,107.209 68.254,118.93 91.764,118.93 
				103.484,107.209 			"/>
		</g>
		<g>
			<polygon fill="#FFFFFF" points="68.254,95.49 68.254,71.982 56.534,83.702 56.534,107.209 68.254,107.209 91.764,107.209 
				103.484,95.49 			"/>
			<polygon fill="#FFFFFF" points="91.764,36.754 68.254,36.754 56.534,36.754 56.534,60.262 68.254,71.982 68.254,48.474 
				103.484,48.474 			"/>
			<polygon fill="#FFFFFF" points="138.709,36.754 115.202,36.754 103.484,48.474 138.709,48.474 138.709,71.982 150.432,60.262 
				150.432,36.754 			"/>
			<polygon fill="#FFFFFF" points="138.709,71.982 138.709,95.49 103.484,95.49 115.202,107.209 138.709,107.209 150.432,107.209 
				150.432,83.702 			"/>
		</g>
	</g>
	<g>
		<path fill="#FFFFFF" d="M4.844,154.186h7.355v26.588h13.625v6.791H4.844V154.186z"/>
		<path fill="#FFFFFF" d="M29.783,154.186h7.355v33.379h-7.355V154.186z"/>
		<path fill="#FFFFFF" d="M40.531,154.186h8.392l8.25,21.873h0.094l8.393-21.873h7.873l-13.766,33.379h-5.894L40.531,154.186z"/>
		<path fill="#FFFFFF" d="M77.306,154.186h22.676v6.787H84.659v6.225h14.474v6.789H84.659v6.787h16.171v6.791H77.306V154.186z"/>
		<path fill="#FFFFFF" d="M107.006,154.186h22.393v6.787H114.36v6.791h13.908v6.787H114.36v13.014h-7.354V154.186z"/>
		<path fill="#FFFFFF" d="M143.071,154.186h6.084l14.518,33.379h-8.295l-2.877-7.072h-12.965l-2.781,7.072h-8.109L143.071,154.186z
			 M145.899,163.897l-4.053,10.373H150L145.899,163.897z"/>
		<path fill="#FFFFFF" d="M166.928,154.186h7.354v33.379h-7.354V154.186z"/>
		<path fill="#FFFFFF" d="M180.975,154.186h12.918c1.697,0,3.309,0.164,4.834,0.494c1.521,0.33,2.859,0.881,4.006,1.65
			c1.148,0.77,2.059,1.807,2.736,3.111c0.674,1.305,1.012,2.932,1.012,4.879c0,2.357-0.613,4.361-1.838,6.012
			c-1.227,1.65-3.018,2.695-5.375,3.135l8.486,14.098h-8.816l-6.979-13.344h-3.629v13.344h-7.355V154.186z M188.331,167.999h4.336
			c0.662,0,1.359-0.023,2.098-0.07c0.74-0.047,1.408-0.189,2.004-0.424c0.598-0.236,1.092-0.605,1.486-1.109
			c0.393-0.5,0.59-1.207,0.59-2.121c0-0.848-0.174-1.523-0.52-2.025c-0.346-0.504-0.787-0.889-1.32-1.156
			c-0.533-0.266-1.146-0.449-1.838-0.543c-0.693-0.094-1.367-0.141-2.027-0.141h-4.809V167.999z"/>
	</g>
</g>
</svg>
