<?xml version="1.0" encoding="utf-8"?>
<!-- Generator: Adobe Illustrator 16.0.0, SVG Export Plug-In . SVG Version: 6.00 Build 0)  -->
<!DOCTYPE svg PUBLIC "-//W3C//DTD SVG 1.1//EN" "http://www.w3.org/Graphics/SVG/1.1/DTD/svg11.dtd">
<svg version="1.1" id="Layer_1" xmlns="http://www.w3.org/2000/svg" xmlns:xlink="http://www.w3.org/1999/xlink" x="0px" y="0px"
	 width="212.599px" height="212.599px" viewBox="0 0 212.599 212.599" enable-background="new 0 0 212.599 212.599"
	 xml:space="preserve">
<g>
	<g>
		<g>
			<g>
				<g>
					<polygon fill="#4D81C2" points="106.788,14.789 94.358,2.359 69.427,2.359 69.427,14.789 					"/>
					<polygon fill="#4D81C2" points="81.856,52.15 69.427,39.72 69.427,14.789 81.856,14.789 					"/>
				</g>
				<g>
					<polygon fill="#4D81C2" points="106.788,14.789 119.217,2.359 144.148,2.359 144.148,14.789 					"/>
					<polygon fill="#4D81C2" points="131.72,52.15 144.148,39.72 144.148,14.789 131.72,14.789 					"/>
				</g>
				<g>
					<g>
						<polygon fill="#4D81C2" points="106.788,89.511 119.217,101.942 144.148,101.942 144.148,89.511 						"/>
						<polygon fill="#4D81C2" points="131.72,52.15 144.148,64.58 144.148,89.511 131.72,89.511 						"/>
					</g>
					<g>
						<polygon fill="#4D81C2" points="106.788,89.511 94.358,101.942 69.427,101.942 69.427,89.511 						"/>
						<polygon fill="#4D81C2" points="81.856,52.15 69.427,64.58 69.427,89.511 81.856,89.511 						"/>
					</g>
				</g>
			</g>
		</g>
		<g>
			<g>
				<polygon fill="#2B2961" points="69.427,52.15 56.996,64.58 56.996,89.511 69.427,89.511 				"/>
				<polygon fill="#2B2961" points="106.788,77.082 94.358,89.511 69.427,89.511 69.427,77.082 				"/>
			</g>
			<g>
				<polygon fill="#2B2961" points="69.427,52.15 56.996,39.72 56.996,14.789 69.427,14.789 				"/>
				<polygon fill="#2B2961" points="106.788,27.218 94.358,14.789 69.427,14.789 69.427,27.218 				"/>
			</g>
			<g>
				<g>
					<polygon fill="#2B2961" points="144.148,52.15 156.58,39.72 156.58,14.789 144.148,14.789 					"/>
					<polygon fill="#2B2961" points="106.788,27.218 119.217,14.789 144.148,14.789 144.148,27.218 					"/>
				</g>
				<g>
					<polygon fill="#2B2961" points="144.148,52.15 156.58,64.58 156.58,89.511 144.148,89.511 					"/>
					<polygon fill="#2B2961" points="106.788,77.082 119.217,89.511 144.148,89.511 144.148,77.082 					"/>
				</g>
			</g>
		</g>
	</g>
	<g>
		<path fill="#2B2961" d="M4.36,209.206V156.36h9.092v52.846H4.36z"/>
		<path fill="#2B2961" d="M20.128,169.358v-9.945h9.163v9.945H20.128z M20.128,209.206v-30.615h9.163v30.615H20.128z"/>
		<path fill="#2B2961" d="M49.535,209.206l-15.271-30.615h8.808l7.813,15.699l7.742-15.699h8.808l-15.271,30.615H49.535z"/>
		<path fill="#2B2961" d="M95.634,204.376c-2.912,3.48-7.387,5.682-12.288,5.682c-8.95,0-16.266-7.316-16.266-16.266
			c0-9.021,7.315-16.266,16.266-16.266c8.949,0,16.266,7.244,16.266,16.266c0,0.994-0.071,1.918-0.284,2.912H76.456
			c0.426,1.137,0.994,2.131,1.775,2.984c1.491,1.633,3.409,2.484,5.47,2.484c1.917,0,3.835-0.852,5.256-2.271L95.634,204.376z
			 M91.017,191.306c-0.354-1.277-0.994-2.486-1.918-3.48c-1.42-1.562-3.409-2.414-5.397-2.414c-2.061,0-3.979,0.852-5.47,2.414
			c-0.853,0.994-1.491,2.203-1.918,3.48H91.017z"/>
		<path fill="#4D81C2" d="M125.823,166.091c-0.497-0.639-1.705-1.705-3.339-1.705c-4.972,0-5.327,6.463-5.327,8.453v5.752h9.163
			v8.311h-9.163v22.305h-8.523v-22.305h-5.824v-8.311h5.824v-5.752c0-4.973,1.278-9.164,3.765-12.217
			c2.486-3.055,6.108-4.76,10.086-4.76c3.693,0,7.174,1.633,9.802,4.617L125.823,166.091z"/>
		<path fill="#4D81C2" d="M164.251,178.591v30.615h-7.529v-2.984c-2.841,2.416-6.535,3.836-10.513,3.836
			c-9.021,0-16.266-7.244-16.266-16.195c0-9.02,7.245-16.193,16.266-16.193c3.978,0,7.672,1.42,10.513,3.836l0.71-2.914H164.251z
			 M155.301,193.862c0-2.201-0.781-4.332-2.344-5.895c-1.491-1.562-3.48-2.416-5.611-2.416s-4.12,0.854-5.683,2.416
			c-1.491,1.562-2.344,3.693-2.344,5.895c0,2.203,0.853,4.262,2.344,5.896c1.562,1.562,3.552,2.414,5.683,2.414
			s4.12-0.852,5.611-2.414C154.52,198.124,155.301,196.065,155.301,193.862z"/>
		<path fill="#4D81C2" d="M170.999,169.358v-9.945h9.163v9.945H170.999z M170.999,209.206v-30.615h9.163v30.615H170.999z"/>
		<path fill="#4D81C2" d="M194.014,182.071c2.272-2.982,6.321-4.262,10.37-4.262c1.775,0,3.552,0.285,5.186,0.854l-3.48,7.885
			c-5.186-2.273-10.441,0.852-11.365,5.752v16.906h-8.879v-30.615h6.891L194.014,182.071z"/>
	</g>
</g>
</svg>
